<?xml version="1.0" encoding="UTF-8" standalone="no"?><svg xmlns="http://www.w3.org/2000/svg" xmlns:xlink="http://www.w3.org/1999/xlink" contentScriptType="application/ecmascript" contentStyleType="text/css" height="765px" preserveAspectRatio="none" style="width:641px;height:765px;background:#FFFFFF;" version="1.1" viewBox="0 0 641 765" width="641px" zoomAndPan="magnify"><defs><filter height="300%" id="f1jytrv16vffp4" width="300%" x="-1" y="-1"><feGaussianBlur result="blurOut" stdDeviation="2.0"/><feColorMatrix in="blurOut" result="blurOut2" type="matrix" values="0 0 0 0 0 0 0 0 0 0 0 0 0 0 0 0 0 0 .4 0"/><feOffset dx="4.0" dy="4.0" in="blurOut2" result="blurOut3"/><feBlend in="SourceGraphic" in2="blurOut3" mode="normal"/></filter></defs><g><rect fill="#FFFFFF" filter="url(#f1jytrv16vffp4)" height="574.2578" style="stroke:#A80036;stroke-width:1.0;" width="10" x="24" y="98.2969"/><rect fill="#FFFFFF" filter="url(#f1jytrv16vffp4)" height="514.9922" style="stroke:#A80036;stroke-width:1.0;" width="10" x="196" y="119.4297"/><rect fill="#FFFFFF" filter="url(#f1jytrv16vffp4)" height="71.2656" style="stroke:#A80036;stroke-width:1.0;" width="10" x="478" y="563.1563"/><line style="stroke:#A80036;stroke-width:1.0;stroke-dasharray:5.0,5.0;" x1="29" x2="29" y1="88.2969" y2="681.5547"/><line style="stroke:#A80036;stroke-width:1.0;stroke-dasharray:5.0,5.0;" x1="201" x2="201" y1="88.2969" y2="681.5547"/><line style="stroke:#A80036;stroke-width:1.0;stroke-dasharray:5.0,5.0;" x1="483" x2="483" y1="88.2969" y2="681.5547"/><text fill="#000000" font-family="sans-serif" font-size="14" lengthAdjust="spacing" textLength="42" x="5" y="84.9951">客户端</text><ellipse cx="29" cy="15" fill="#FEFECE" filter="url(#f1jytrv16vffp4)" rx="8" ry="8" style="stroke:#A80036;stroke-width:2.0;"/><path d="M29,23 L29,50 M16,31 L42,31 M29,50 L16,65 M29,50 L42,65 " fill="none" filter="url(#f1jytrv16vffp4)" style="stroke:#A80036;stroke-width:2.0;"/><text fill="#000000" font-family="sans-serif" font-size="14" lengthAdjust="spacing" textLength="42" x="5" y="693.5498">客户端</text><ellipse cx="29" cy="706.8516" fill="#FEFECE" filter="url(#f1jytrv16vffp4)" rx="8" ry="8" style="stroke:#A80036;stroke-width:2.0;"/><path d="M29,714.8516 L29,741.8516 M16,722.8516 L42,722.8516 M29,741.8516 L16,756.8516 M29,741.8516 L42,756.8516 " fill="none" filter="url(#f1jytrv16vffp4)" style="stroke:#A80036;stroke-width:2.0;"/><rect fill="#FEFECE" filter="url(#f1jytrv16vffp4)" height="30.2969" style="stroke:#A80036;stroke-width:1.5;" width="62" x="168" y="53"/><text fill="#000000" font-family="sans-serif" font-size="14" lengthAdjust="spacing" textLength="48" x="175" y="72.9951">Builder</text><rect fill="#FEFECE" filter="url(#f1jytrv16vffp4)" height="30.2969" style="stroke:#A80036;stroke-width:1.5;" width="62" x="168" y="680.5547"/><text fill="#000000" font-family="sans-serif" font-size="14" lengthAdjust="spacing" textLength="48" x="175" y="700.5498">Builder</text><rect fill="#FFA500" filter="url(#f1jytrv16vffp4)" height="30.2969" style="stroke:#A80036;stroke-width:1.5;" width="40" x="461" y="53"/><text fill="#000000" font-family="sans-serif" font-size="14" lengthAdjust="spacing" textLength="26" x="468" y="72.9951">Mail</text><rect fill="#FFA500" filter="url(#f1jytrv16vffp4)" height="30.2969" style="stroke:#A80036;stroke-width:1.5;" width="40" x="461" y="680.5547"/><text fill="#000000" font-family="sans-serif" font-size="14" lengthAdjust="spacing" textLength="26" x="468" y="700.5498">Mail</text><rect fill="#FFFFFF" filter="url(#f1jytrv16vffp4)" height="574.2578" style="stroke:#A80036;stroke-width:1.0;" width="10" x="24" y="98.2969"/><rect fill="#FFFFFF" filter="url(#f1jytrv16vffp4)" height="514.9922" style="stroke:#A80036;stroke-width:1.0;" width="10" x="196" y="119.4297"/><rect fill="#FFFFFF" filter="url(#f1jytrv16vffp4)" height="71.2656" style="stroke:#A80036;stroke-width:1.0;" width="10" x="478" y="563.1563"/><polygon fill="#A80036" points="184,115.4297,194,119.4297,184,123.4297,188,119.4297" style="stroke:#A80036;stroke-width:1.0;"/><line style="stroke:#A80036;stroke-width:1.0;" x1="34" x2="190" y1="119.4297" y2="119.4297"/><text fill="#000000" font-family="sans-serif" font-size="13" font-weight="bold" lengthAdjust="spacing" textLength="9" x="41" y="114.3638">1</text><text fill="#000000" font-family="sans-serif" font-size="13" lengthAdjust="spacing" textLength="83" x="54" y="114.3638">new Builder()</text><polygon fill="#A80036" points="45,144.5625,35,148.5625,45,152.5625,41,148.5625" style="stroke:#A80036;stroke-width:1.0;"/><line style="stroke:#A80036;stroke-width:1.0;" x1="39" x2="195" y1="148.5625" y2="148.5625"/><text fill="#000000" font-family="sans-serif" font-size="13" font-weight="bold" lengthAdjust="spacing" textLength="9" x="51" y="143.4966">2</text><text fill="#000000" font-family="sans-serif" font-size="13" lengthAdjust="spacing" textLength="65" x="64" y="143.4966">返回建造器</text><polygon fill="#A80036" points="184,173.6953,194,177.6953,184,181.6953,188,177.6953" style="stroke:#A80036;stroke-width:1.0;"/><line style="stroke:#A80036;stroke-width:1.0;" x1="34" x2="190" y1="177.6953" y2="177.6953"/><text fill="#000000" font-family="sans-serif" font-size="13" font-weight="bold" lengthAdjust="spacing" textLength="9" x="41" y="172.6294">3</text><text fill="#000000" font-family="sans-serif" font-size="13" lengthAdjust="spacing" textLength="125" x="54" y="172.6294">buildFromAddress()</text><line style="stroke:#A80036;stroke-width:1.0;" x1="206" x2="248" y1="206.8281" y2="206.8281"/><line style="stroke:#A80036;stroke-width:1.0;" x1="248" x2="248" y1="206.8281" y2="219.8281"/><line style="stroke:#A80036;stroke-width:1.0;" x1="207" x2="248" y1="219.8281" y2="219.8281"/><polygon fill="#A80036" points="217,215.8281,207,219.8281,217,223.8281,213,219.8281" style="stroke:#A80036;stroke-width:1.0;"/><text fill="#000000" font-family="sans-serif" font-size="13" font-weight="bold" lengthAdjust="spacing" textLength="9" x="213" y="201.7622">4</text><text fill="#000000" font-family="sans-serif" font-size="13" lengthAdjust="spacing" textLength="78" x="226" y="201.7622">设置发件邮箱</text><polygon fill="#A80036" points="184,244.9609,194,248.9609,184,252.9609,188,248.9609" style="stroke:#A80036;stroke-width:1.0;"/><line style="stroke:#A80036;stroke-width:1.0;" x1="34" x2="190" y1="248.9609" y2="248.9609"/><text fill="#000000" font-family="sans-serif" font-size="13" font-weight="bold" lengthAdjust="spacing" textLength="9" x="41" y="243.895">5</text><text fill="#000000" font-family="sans-serif" font-size="13" lengthAdjust="spacing" textLength="107" x="54" y="243.895">buildToAddress()</text><line style="stroke:#A80036;stroke-width:1.0;" x1="206" x2="248" y1="278.0938" y2="278.0938"/><line style="stroke:#A80036;stroke-width:1.0;" x1="248" x2="248" y1="278.0938" y2="291.0938"/><line style="stroke:#A80036;stroke-width:1.0;" x1="207" x2="248" y1="291.0938" y2="291.0938"/><polygon fill="#A80036" points="217,287.0938,207,291.0938,217,295.0938,213,291.0938" style="stroke:#A80036;stroke-width:1.0;"/><text fill="#000000" font-family="sans-serif" font-size="13" font-weight="bold" lengthAdjust="spacing" textLength="9" x="213" y="273.0278">6</text><text fill="#000000" font-family="sans-serif" font-size="13" lengthAdjust="spacing" textLength="78" x="226" y="273.0278">设置收件邮箱</text><polygon fill="#A80036" points="184,316.2266,194,320.2266,184,324.2266,188,320.2266" style="stroke:#A80036;stroke-width:1.0;"/><line style="stroke:#A80036;stroke-width:1.0;" x1="34" x2="190" y1="320.2266" y2="320.2266"/><text fill="#000000" font-family="sans-serif" font-size="13" font-weight="bold" lengthAdjust="spacing" textLength="9" x="41" y="315.1606">7</text><text fill="#000000" font-family="sans-serif" font-size="13" lengthAdjust="spacing" textLength="84" x="54" y="315.1606">buildTheme()</text><line style="stroke:#A80036;stroke-width:1.0;" x1="206" x2="248" y1="349.3594" y2="349.3594"/><line style="stroke:#A80036;stroke-width:1.0;" x1="248" x2="248" y1="349.3594" y2="362.3594"/><line style="stroke:#A80036;stroke-width:1.0;" x1="207" x2="248" y1="362.3594" y2="362.3594"/><polygon fill="#A80036" points="217,358.3594,207,362.3594,217,366.3594,213,362.3594" style="stroke:#A80036;stroke-width:1.0;"/><text fill="#000000" font-family="sans-serif" font-size="13" font-weight="bold" lengthAdjust="spacing" textLength="9" x="213" y="344.2935">8</text><text fill="#000000" font-family="sans-serif" font-size="13" lengthAdjust="spacing" textLength="52" x="226" y="344.2935">设置主题</text><polygon fill="#A80036" points="184,387.4922,194,391.4922,184,395.4922,188,391.4922" style="stroke:#A80036;stroke-width:1.0;"/><line style="stroke:#A80036;stroke-width:1.0;" x1="34" x2="190" y1="391.4922" y2="391.4922"/><text fill="#000000" font-family="sans-serif" font-size="13" font-weight="bold" lengthAdjust="spacing" textLength="9" x="41" y="386.4263">9</text><text fill="#000000" font-family="sans-serif" font-size="13" lengthAdjust="spacing" textLength="72" x="54" y="386.4263">buildBody()</text><line style="stroke:#A80036;stroke-width:1.0;" x1="206" x2="248" y1="420.625" y2="420.625"/><line style="stroke:#A80036;stroke-width:1.0;" x1="248" x2="248" y1="420.625" y2="433.625"/><line style="stroke:#A80036;stroke-width:1.0;" x1="207" x2="248" y1="433.625" y2="433.625"/><polygon fill="#A80036" points="217,429.625,207,433.625,217,437.625,213,433.625" style="stroke:#A80036;stroke-width:1.0;"/><text fill="#000000" font-family="sans-serif" font-size="13" font-weight="bold" lengthAdjust="spacing" textLength="18" x="213" y="415.5591">10</text><text fill="#000000" font-family="sans-serif" font-size="13" lengthAdjust="spacing" textLength="52" x="235" y="415.5591">设置正文</text><polygon fill="#A80036" points="184,458.7578,194,462.7578,184,466.7578,188,462.7578" style="stroke:#A80036;stroke-width:1.0;"/><line style="stroke:#A80036;stroke-width:1.0;" x1="34" x2="190" y1="462.7578" y2="462.7578"/><text fill="#000000" font-family="sans-serif" font-size="13" font-weight="bold" lengthAdjust="spacing" textLength="18" x="41" y="457.6919">11</text><text fill="#000000" font-family="sans-serif" font-size="13" lengthAdjust="spacing" textLength="26" x="63" y="457.6919">其他</text><line style="stroke:#A80036;stroke-width:1.0;" x1="206" x2="248" y1="491.8906" y2="491.8906"/><line style="stroke:#A80036;stroke-width:1.0;" x1="248" x2="248" y1="491.8906" y2="504.8906"/><line style="stroke:#A80036;stroke-width:1.0;" x1="207" x2="248" y1="504.8906" y2="504.8906"/><polygon fill="#A80036" points="217,500.8906,207,504.8906,217,508.8906,213,504.8906" style="stroke:#A80036;stroke-width:1.0;"/><text fill="#000000" font-family="sans-serif" font-size="13" font-weight="bold" lengthAdjust="spacing" textLength="18" x="213" y="486.8247">12</text><text fill="#000000" font-family="sans-serif" font-size="13" lengthAdjust="spacing" textLength="52" x="235" y="486.8247">设置其他</text><polygon fill="#A80036" points="184,530.0234,194,534.0234,184,538.0234,188,534.0234" style="stroke:#A80036;stroke-width:1.0;"/><line style="stroke:#A80036;stroke-width:1.0;" x1="34" x2="190" y1="534.0234" y2="534.0234"/><text fill="#000000" font-family="sans-serif" font-size="13" font-weight="bold" lengthAdjust="spacing" textLength="18" x="41" y="528.9575">13</text><text fill="#000000" font-family="sans-serif" font-size="13" lengthAdjust="spacing" textLength="40" x="63" y="528.9575">build()</text><polygon fill="#A80036" points="466,559.1563,476,563.1563,466,567.1563,470,563.1563" style="stroke:#A80036;stroke-width:1.0;"/><line style="stroke:#A80036;stroke-width:1.0;" x1="206" x2="472" y1="563.1563" y2="563.1563"/><text fill="#000000" font-family="sans-serif" font-size="13" font-weight="bold" lengthAdjust="spacing" textLength="18" x="213" y="558.0903">14</text><text fill="#000000" font-family="sans-serif" font-size="13" lengthAdjust="spacing" textLength="231" x="235" y="558.0903">new Mail(fromAddress, toAddress...)</text><line style="stroke:#A80036;stroke-width:1.0;" x1="488" x2="530" y1="592.2891" y2="592.2891"/><line style="stroke:#A80036;stroke-width:1.0;" x1="530" x2="530" y1="592.2891" y2="605.2891"/><line style="stroke:#A80036;stroke-width:1.0;" x1="489" x2="530" y1="605.2891" y2="605.2891"/><polygon fill="#A80036" points="499,601.2891,489,605.2891,499,609.2891,495,605.2891" style="stroke:#A80036;stroke-width:1.0;"/><text fill="#000000" font-family="sans-serif" font-size="13" font-weight="bold" lengthAdjust="spacing" textLength="18" x="495" y="587.2231">15</text><text fill="#000000" font-family="sans-serif" font-size="13" lengthAdjust="spacing" textLength="117" x="517" y="587.2231">初始化邮件通知对象</text><polygon fill="#A80036" points="212,630.4219,202,634.4219,212,638.4219,208,634.4219" style="stroke:#A80036;stroke-width:1.0;"/><line style="stroke:#A80036;stroke-width:1.0;" x1="206" x2="482" y1="634.4219" y2="634.4219"/><text fill="#000000" font-family="sans-serif" font-size="13" font-weight="bold" lengthAdjust="spacing" textLength="18" x="218" y="629.356">16</text><text fill="#000000" font-family="sans-serif" font-size="13" lengthAdjust="spacing" textLength="104" x="240" y="629.356">返回邮件通知对象</text><polygon fill="#A80036" points="45,659.5547,35,663.5547,45,667.5547,41,663.5547" style="stroke:#A80036;stroke-width:1.0;"/><line style="stroke:#A80036;stroke-width:1.0;" x1="39" x2="200" y1="663.5547" y2="663.5547"/><text fill="#000000" font-family="sans-serif" font-size="13" font-weight="bold" lengthAdjust="spacing" textLength="18" x="51" y="658.4888">17</text><text fill="#000000" font-family="sans-serif" font-size="13" lengthAdjust="spacing" textLength="78" x="73" y="658.4888">邮件通知对象</text></g></svg>