<?xml version="1.0" encoding="UTF-8" standalone="no"?><svg xmlns="http://www.w3.org/2000/svg" xmlns:xlink="http://www.w3.org/1999/xlink" contentScriptType="application/ecmascript" contentStyleType="text/css" height="411px" preserveAspectRatio="none" style="width:318px;height:411px;background:#FFFFFF;" version="1.1" viewBox="0 0 318 411" width="318px" zoomAndPan="magnify"><defs><filter height="300%" id="f5mmrwpbedqr2" width="300%" x="-1" y="-1"><feGaussianBlur result="blurOut" stdDeviation="2.0"/><feColorMatrix in="blurOut" result="blurOut2" type="matrix" values="0 0 0 0 0 0 0 0 0 0 0 0 0 0 0 0 0 0 .4 0"/><feOffset dx="4.0" dy="4.0" in="blurOut2" result="blurOut3"/><feBlend in="SourceGraphic" in2="blurOut3" mode="normal"/></filter></defs><g><rect fill="#FFFFFF" filter="url(#f5mmrwpbedqr2)" height="219.6016" style="stroke:#A80036;stroke-width:1.0;" width="10" x="39" y="98.2969"/><rect fill="#FFFFFF" filter="url(#f5mmrwpbedqr2)" height="168.4688" style="stroke:#A80036;stroke-width:1.0;" width="10" x="125" y="119.4297"/><rect fill="#FFFFFF" filter="url(#f5mmrwpbedqr2)" height="71.2656" style="stroke:#A80036;stroke-width:1.0;" width="10" x="223" y="216.6328"/><rect fill="#FFFFFF" filter="url(#f5mmrwpbedqr2)" height="175.4688" style="stroke:#000000;stroke-width:2.0;" width="294" x="10" y="134.4297"/><rect fill="#FFFFFF" height="129.2031" style="stroke:none;stroke-width:1.0;" width="294" x="10" y="180.6953"/><line style="stroke:#A80036;stroke-width:1.0;stroke-dasharray:5.0,5.0;" x1="44" x2="44" y1="88.2969" y2="326.8984"/><line style="stroke:#A80036;stroke-width:1.0;stroke-dasharray:5.0,5.0;" x1="130" x2="130" y1="88.2969" y2="326.8984"/><line style="stroke:#A80036;stroke-width:1.0;stroke-dasharray:5.0,5.0;" x1="228" x2="228" y1="88.2969" y2="326.8984"/><text fill="#000000" font-family="sans-serif" font-size="14" lengthAdjust="spacing" textLength="42" x="20" y="84.9951">客户端</text><ellipse cx="44" cy="15" fill="#FEFECE" filter="url(#f5mmrwpbedqr2)" rx="8" ry="8" style="stroke:#A80036;stroke-width:2.0;"/><path d="M44,23 L44,50 M31,31 L57,31 M44,50 L31,65 M44,50 L57,65 " fill="none" filter="url(#f5mmrwpbedqr2)" style="stroke:#A80036;stroke-width:2.0;"/><text fill="#000000" font-family="sans-serif" font-size="14" lengthAdjust="spacing" textLength="42" x="20" y="338.8936">客户端</text><ellipse cx="44" cy="352.1953" fill="#FEFECE" filter="url(#f5mmrwpbedqr2)" rx="8" ry="8" style="stroke:#A80036;stroke-width:2.0;"/><path d="M44,360.1953 L44,387.1953 M31,368.1953 L57,368.1953 M44,387.1953 L31,402.1953 M44,387.1953 L57,402.1953 " fill="none" filter="url(#f5mmrwpbedqr2)" style="stroke:#A80036;stroke-width:2.0;"/><rect fill="#FEFECE" filter="url(#f5mmrwpbedqr2)" height="30.2969" style="stroke:#A80036;stroke-width:1.5;" width="98" x="79" y="53"/><text fill="#000000" font-family="sans-serif" font-size="14" lengthAdjust="spacing" textLength="84" x="86" y="72.9951">缓存代理对象</text><rect fill="#FEFECE" filter="url(#f5mmrwpbedqr2)" height="30.2969" style="stroke:#A80036;stroke-width:1.5;" width="98" x="79" y="325.8984"/><text fill="#000000" font-family="sans-serif" font-size="14" lengthAdjust="spacing" textLength="84" x="86" y="345.8936">缓存代理对象</text><rect fill="#FFA500" filter="url(#f5mmrwpbedqr2)" height="30.2969" style="stroke:#A80036;stroke-width:1.5;" width="70" x="191" y="53"/><text fill="#000000" font-family="sans-serif" font-size="14" lengthAdjust="spacing" textLength="56" x="198" y="72.9951">真实对象</text><rect fill="#FFA500" filter="url(#f5mmrwpbedqr2)" height="30.2969" style="stroke:#A80036;stroke-width:1.5;" width="70" x="191" y="325.8984"/><text fill="#000000" font-family="sans-serif" font-size="14" lengthAdjust="spacing" textLength="56" x="198" y="345.8936">真实对象</text><rect fill="#FFFFFF" filter="url(#f5mmrwpbedqr2)" height="219.6016" style="stroke:#A80036;stroke-width:1.0;" width="10" x="39" y="98.2969"/><rect fill="#FFFFFF" filter="url(#f5mmrwpbedqr2)" height="168.4688" style="stroke:#A80036;stroke-width:1.0;" width="10" x="125" y="119.4297"/><rect fill="#FFFFFF" filter="url(#f5mmrwpbedqr2)" height="71.2656" style="stroke:#A80036;stroke-width:1.0;" width="10" x="223" y="216.6328"/><polygon fill="#A80036" points="113,115.4297,123,119.4297,113,123.4297,117,119.4297" style="stroke:#A80036;stroke-width:1.0;"/><line style="stroke:#A80036;stroke-width:1.0;" x1="49" x2="119" y1="119.4297" y2="119.4297"/><text fill="#000000" font-family="sans-serif" font-size="13" lengthAdjust="spacing" textLength="52" x="56" y="114.3638">请求数据</text><path d="M10,134.4297 L74,134.4297 L74,141.4297 L64,151.4297 L10,151.4297 L10,134.4297 " fill="#EEEEEE" style="stroke:#000000;stroke-width:1.0;"/><rect fill="none" height="175.4688" style="stroke:#000000;stroke-width:2.0;" width="294" x="10" y="134.4297"/><text fill="#000000" font-family="sans-serif" font-size="13" font-weight="bold" lengthAdjust="spacing" textLength="19" x="25" y="147.4966">alt</text><text fill="#000000" font-family="sans-serif" font-size="11" font-weight="bold" lengthAdjust="spacing" textLength="58" x="89" y="146.6401">[命中缓存]</text><polygon fill="#A80036" points="60,168.6953,50,172.6953,60,176.6953,56,172.6953" style="stroke:#A80036;stroke-width:1.0;"/><line style="stroke:#A80036;stroke-width:1.0;" x1="54" x2="124" y1="172.6953" y2="172.6953"/><text fill="#000000" font-family="sans-serif" font-size="13" lengthAdjust="spacing" textLength="52" x="66" y="167.6294">返回数据</text><line style="stroke:#000000;stroke-width:1.0;stroke-dasharray:2.0,2.0;" x1="10" x2="304" y1="181.6953" y2="181.6953"/><text fill="#000000" font-family="sans-serif" font-size="11" font-weight="bold" lengthAdjust="spacing" textLength="70" x="15" y="191.9058">[未命中缓存]</text><polygon fill="#A80036" points="211,212.6328,221,216.6328,211,220.6328,215,216.6328" style="stroke:#A80036;stroke-width:1.0;"/><line style="stroke:#A80036;stroke-width:1.0;" x1="135" x2="217" y1="216.6328" y2="216.6328"/><text fill="#000000" font-family="sans-serif" font-size="13" lengthAdjust="spacing" textLength="52" x="142" y="211.5669">请求数据</text><line style="stroke:#A80036;stroke-width:1.0;" x1="233" x2="275" y1="245.7656" y2="245.7656"/><line style="stroke:#A80036;stroke-width:1.0;" x1="275" x2="275" y1="245.7656" y2="258.7656"/><line style="stroke:#A80036;stroke-width:1.0;" x1="234" x2="275" y1="258.7656" y2="258.7656"/><polygon fill="#A80036" points="244,254.7656,234,258.7656,244,262.7656,240,258.7656" style="stroke:#A80036;stroke-width:1.0;"/><text fill="#000000" font-family="sans-serif" font-size="13" lengthAdjust="spacing" textLength="52" x="240" y="240.6997">处理请求</text><polygon fill="#A80036" points="141,283.8984,131,287.8984,141,291.8984,137,287.8984" style="stroke:#A80036;stroke-width:1.0;"/><line style="stroke:#A80036;stroke-width:1.0;" x1="135" x2="227" y1="287.8984" y2="287.8984"/><text fill="#000000" font-family="sans-serif" font-size="13" lengthAdjust="spacing" textLength="52" x="147" y="282.8325">返回响应</text><polygon fill="#A80036" points="60,297.8984,50,301.8984,60,305.8984,56,301.8984" style="stroke:#A80036;stroke-width:1.0;"/><line style="stroke:#A80036;stroke-width:1.0;stroke-dasharray:2.0,2.0;" x1="54" x2="129" y1="301.8984" y2="301.8984"/></g></svg>