<?xml version="1.0" encoding="UTF-8" standalone="no"?><svg xmlns="http://www.w3.org/2000/svg" xmlns:xlink="http://www.w3.org/1999/xlink" contentScriptType="application/ecmascript" contentStyleType="text/css" height="390px" preserveAspectRatio="none" style="width:464px;height:390px;background:#FFFFFF;" version="1.1" viewBox="0 0 464 390" width="464px" zoomAndPan="magnify"><defs><filter height="300%" id="fe0qb1bfprldi" width="300%" x="-1" y="-1"><feGaussianBlur result="blurOut" stdDeviation="2.0"/><feColorMatrix in="blurOut" result="blurOut2" type="matrix" values="0 0 0 0 0 0 0 0 0 0 0 0 0 0 0 0 0 0 .4 0"/><feOffset dx="4.0" dy="4.0" in="blurOut2" result="blurOut3"/><feBlend in="SourceGraphic" in2="blurOut3" mode="normal"/></filter></defs><g><rect fill="#FFFFFF" filter="url(#fe0qb1bfprldi)" height="198.7969" style="stroke:#A80036;stroke-width:1.0;" width="10" x="24" y="98.2969"/><rect fill="#FFFFFF" filter="url(#fe0qb1bfprldi)" height="139.5313" style="stroke:#A80036;stroke-width:1.0;" width="10" x="168" y="119.4297"/><rect fill="#FFFFFF" filter="url(#fe0qb1bfprldi)" height="110.3984" style="stroke:#A80036;stroke-width:1.0;" width="10" x="328" y="148.5625"/><line style="stroke:#A80036;stroke-width:1.0;stroke-dasharray:5.0,5.0;" x1="29" x2="29" y1="88.2969" y2="306.0938"/><line style="stroke:#A80036;stroke-width:1.0;stroke-dasharray:5.0,5.0;" x1="173" x2="173" y1="88.2969" y2="306.0938"/><line style="stroke:#A80036;stroke-width:1.0;stroke-dasharray:5.0,5.0;" x1="333" x2="333" y1="88.2969" y2="306.0938"/><text fill="#000000" font-family="sans-serif" font-size="14" lengthAdjust="spacing" textLength="42" x="5" y="84.9951">客户端</text><ellipse cx="29" cy="15" fill="#FEFECE" filter="url(#fe0qb1bfprldi)" rx="8" ry="8" style="stroke:#A80036;stroke-width:2.0;"/><path d="M29,23 L29,50 M16,31 L42,31 M29,50 L16,65 M29,50 L42,65 " fill="none" filter="url(#fe0qb1bfprldi)" style="stroke:#A80036;stroke-width:2.0;"/><text fill="#000000" font-family="sans-serif" font-size="14" lengthAdjust="spacing" textLength="42" x="5" y="318.0889">客户端</text><ellipse cx="29" cy="331.3906" fill="#FEFECE" filter="url(#fe0qb1bfprldi)" rx="8" ry="8" style="stroke:#A80036;stroke-width:2.0;"/><path d="M29,339.3906 L29,366.3906 M16,347.3906 L42,347.3906 M29,366.3906 L16,381.3906 M29,366.3906 L42,381.3906 " fill="none" filter="url(#fe0qb1bfprldi)" style="stroke:#A80036;stroke-width:2.0;"/><rect fill="#FEFECE" filter="url(#fe0qb1bfprldi)" height="30.2969" style="stroke:#A80036;stroke-width:1.5;" width="70" x="136" y="53"/><text fill="#000000" font-family="sans-serif" font-size="14" lengthAdjust="spacing" textLength="56" x="143" y="72.9951">本地代理</text><rect fill="#FEFECE" filter="url(#fe0qb1bfprldi)" height="30.2969" style="stroke:#A80036;stroke-width:1.5;" width="70" x="136" y="305.0938"/><text fill="#000000" font-family="sans-serif" font-size="14" lengthAdjust="spacing" textLength="56" x="143" y="325.0889">本地代理</text><rect fill="#FFA500" filter="url(#fe0qb1bfprldi)" height="30.2969" style="stroke:#A80036;stroke-width:1.5;" width="70" x="296" y="53"/><text fill="#000000" font-family="sans-serif" font-size="14" lengthAdjust="spacing" textLength="56" x="303" y="72.9951">远程接口</text><rect fill="#FFA500" filter="url(#fe0qb1bfprldi)" height="30.2969" style="stroke:#A80036;stroke-width:1.5;" width="70" x="296" y="305.0938"/><text fill="#000000" font-family="sans-serif" font-size="14" lengthAdjust="spacing" textLength="56" x="303" y="325.0889">远程接口</text><rect fill="#FFFFFF" filter="url(#fe0qb1bfprldi)" height="198.7969" style="stroke:#A80036;stroke-width:1.0;" width="10" x="24" y="98.2969"/><rect fill="#FFFFFF" filter="url(#fe0qb1bfprldi)" height="139.5313" style="stroke:#A80036;stroke-width:1.0;" width="10" x="168" y="119.4297"/><rect fill="#FFFFFF" filter="url(#fe0qb1bfprldi)" height="110.3984" style="stroke:#A80036;stroke-width:1.0;" width="10" x="328" y="148.5625"/><polygon fill="#A80036" points="156,115.4297,166,119.4297,156,123.4297,160,119.4297" style="stroke:#A80036;stroke-width:1.0;"/><line style="stroke:#A80036;stroke-width:1.0;" x1="34" x2="162" y1="119.4297" y2="119.4297"/><text fill="#000000" font-family="sans-serif" font-size="13" font-weight="bold" lengthAdjust="spacing" textLength="9" x="41" y="114.3638">1</text><text fill="#000000" font-family="sans-serif" font-size="13" lengthAdjust="spacing" textLength="102" x="54" y="114.3638">调用本地接口:Api</text><polygon fill="#A80036" points="316,144.5625,326,148.5625,316,152.5625,320,148.5625" style="stroke:#A80036;stroke-width:1.0;"/><line style="stroke:#A80036;stroke-width:1.0;" x1="178" x2="322" y1="148.5625" y2="148.5625"/><text fill="#000000" font-family="sans-serif" font-size="13" font-weight="bold" lengthAdjust="spacing" textLength="9" x="185" y="143.4966">2</text><text fill="#000000" font-family="sans-serif" font-size="13" lengthAdjust="spacing" textLength="102" x="198" y="143.4966">请求远程接口:Api</text><line style="stroke:#A80036;stroke-width:1.0;" x1="338" x2="380" y1="177.6953" y2="177.6953"/><line style="stroke:#A80036;stroke-width:1.0;" x1="380" x2="380" y1="177.6953" y2="190.6953"/><line style="stroke:#A80036;stroke-width:1.0;" x1="339" x2="380" y1="190.6953" y2="190.6953"/><polygon fill="#A80036" points="349,186.6953,339,190.6953,349,194.6953,345,190.6953" style="stroke:#A80036;stroke-width:1.0;"/><text fill="#000000" font-family="sans-serif" font-size="13" font-weight="bold" lengthAdjust="spacing" textLength="9" x="345" y="172.6294">3</text><text fill="#000000" font-family="sans-serif" font-size="13" lengthAdjust="spacing" textLength="52" x="358" y="172.6294">处理请求</text><path d="M343,203.6953 L343,228.6953 L455,228.6953 L455,213.6953 L445,203.6953 L343,203.6953 " fill="#FBFB77" filter="url(#fe0qb1bfprldi)" style="stroke:#A80036;stroke-width:1.0;"/><path d="M445,203.6953 L445,213.6953 L455,213.6953 L445,203.6953 " fill="#FBFB77" style="stroke:#A80036;stroke-width:1.0;"/><text fill="#000000" font-family="sans-serif" font-size="13" lengthAdjust="spacing" textLength="91" x="349" y="220.7622">远程被代理对象</text><polygon fill="#A80036" points="184,254.9609,174,258.9609,184,262.9609,180,258.9609" style="stroke:#A80036;stroke-width:1.0;"/><line style="stroke:#A80036;stroke-width:1.0;" x1="178" x2="332" y1="258.9609" y2="258.9609"/><text fill="#000000" font-family="sans-serif" font-size="13" font-weight="bold" lengthAdjust="spacing" textLength="9" x="190" y="253.895">4</text><text fill="#000000" font-family="sans-serif" font-size="13" lengthAdjust="spacing" textLength="113" x="203" y="253.895">返回响应结果:Data</text><polygon fill="#A80036" points="45,284.0938,35,288.0938,45,292.0938,41,288.0938" style="stroke:#A80036;stroke-width:1.0;"/><line style="stroke:#A80036;stroke-width:1.0;stroke-dasharray:2.0,2.0;" x1="39" x2="172" y1="288.0938" y2="288.0938"/><text fill="#000000" font-family="sans-serif" font-size="13" font-weight="bold" lengthAdjust="spacing" textLength="9" x="51" y="283.0278">5</text><text fill="#000000" font-family="sans-serif" font-size="13" lengthAdjust="spacing" textLength="0" x="68" y="283.0278"/></g></svg>