<?xml version="1.0" encoding="UTF-8" standalone="no"?><svg xmlns="http://www.w3.org/2000/svg" xmlns:xlink="http://www.w3.org/1999/xlink" contentScriptType="application/ecmascript" contentStyleType="text/css" height="278px" preserveAspectRatio="none" style="width:556px;height:278px;background:#FFFFFF;" version="1.1" viewBox="0 0 556 278" width="556px" zoomAndPan="magnify"><defs><filter height="300%" id="feagn8ribk318" width="300%" x="-1" y="-1"><feGaussianBlur result="blurOut" stdDeviation="2.0"/><feColorMatrix in="blurOut" result="blurOut2" type="matrix" values="0 0 0 0 0 0 0 0 0 0 0 0 0 0 0 0 0 0 .4 0"/><feOffset dx="4.0" dy="4.0" in="blurOut2" result="blurOut3"/><feBlend in="SourceGraphic" in2="blurOut3" mode="normal"/></filter></defs><g><rect fill="#FFFFFF" filter="url(#feagn8ribk318)" height="175.7969" style="stroke:#A80036;stroke-width:1.0;" width="10" x="72" y="50.2969"/><rect fill="#FFFFFF" filter="url(#feagn8ribk318)" height="58.2656" style="stroke:#A80036;stroke-width:1.0;" width="10" x="205" y="71.4297"/><rect fill="#FFFFFF" filter="url(#feagn8ribk318)" height="67.2656" style="stroke:#A80036;stroke-width:1.0;" width="10" x="305.5" y="158.8281"/><rect fill="#FFFFFF" filter="url(#feagn8ribk318)" height="29.1328" style="stroke:#A80036;stroke-width:1.0;" width="10" x="512.5" y="100.5625"/><rect fill="#FFFFFF" filter="url(#feagn8ribk318)" height="29.1328" style="stroke:#A80036;stroke-width:1.0;" width="10" x="512.5" y="187.9609"/><line style="stroke:#A80036;stroke-width:1.0;stroke-dasharray:5.0,5.0;" x1="77" x2="77" y1="40.2969" y2="235.0938"/><line style="stroke:#A80036;stroke-width:1.0;stroke-dasharray:5.0,5.0;" x1="210" x2="210" y1="40.2969" y2="235.0938"/><line style="stroke:#A80036;stroke-width:1.0;stroke-dasharray:5.0,5.0;" x1="310" x2="310" y1="40.2969" y2="235.0938"/><line style="stroke:#A80036;stroke-width:1.0;stroke-dasharray:5.0,5.0;" x1="517.5" x2="517.5" y1="40.2969" y2="235.0938"/><rect fill="#FEFECE" filter="url(#feagn8ribk318)" height="30.2969" style="stroke:#A80036;stroke-width:1.5;" width="140" x="5" y="5"/><text fill="#000000" font-family="sans-serif" font-size="14" lengthAdjust="spacing" textLength="126" x="12" y="24.9951">anObjectStructure</text><rect fill="#FEFECE" filter="url(#feagn8ribk318)" height="30.2969" style="stroke:#A80036;stroke-width:1.5;" width="140" x="5" y="234.0938"/><text fill="#000000" font-family="sans-serif" font-size="14" lengthAdjust="spacing" textLength="126" x="12" y="254.0889">anObjectStructure</text><rect fill="#FEFECE" filter="url(#feagn8ribk318)" height="30.2969" style="stroke:#A80036;stroke-width:1.5;" width="86" x="165" y="5"/><text fill="#000000" font-family="sans-serif" font-size="14" lengthAdjust="spacing" textLength="72" x="172" y="24.9951">element_a</text><rect fill="#FEFECE" filter="url(#feagn8ribk318)" height="30.2969" style="stroke:#A80036;stroke-width:1.5;" width="86" x="165" y="234.0938"/><text fill="#000000" font-family="sans-serif" font-size="14" lengthAdjust="spacing" textLength="72" x="172" y="254.0889">element_a</text><rect fill="#FEFECE" filter="url(#feagn8ribk318)" height="30.2969" style="stroke:#A80036;stroke-width:1.5;" width="87" x="265" y="5"/><text fill="#000000" font-family="sans-serif" font-size="14" lengthAdjust="spacing" textLength="73" x="272" y="24.9951">element_b</text><rect fill="#FEFECE" filter="url(#feagn8ribk318)" height="30.2969" style="stroke:#A80036;stroke-width:1.5;" width="87" x="265" y="234.0938"/><text fill="#000000" font-family="sans-serif" font-size="14" lengthAdjust="spacing" textLength="73" x="272" y="254.0889">element_b</text><rect fill="#FFA500" filter="url(#feagn8ribk318)" height="30.2969" style="stroke:#A80036;stroke-width:1.5;" width="54" x="488.5" y="5"/><text fill="#000000" font-family="sans-serif" font-size="14" lengthAdjust="spacing" textLength="40" x="495.5" y="24.9951">visitor</text><rect fill="#FFA500" filter="url(#feagn8ribk318)" height="30.2969" style="stroke:#A80036;stroke-width:1.5;" width="54" x="488.5" y="234.0938"/><text fill="#000000" font-family="sans-serif" font-size="14" lengthAdjust="spacing" textLength="40" x="495.5" y="254.0889">visitor</text><rect fill="#FFFFFF" filter="url(#feagn8ribk318)" height="175.7969" style="stroke:#A80036;stroke-width:1.0;" width="10" x="72" y="50.2969"/><rect fill="#FFFFFF" filter="url(#feagn8ribk318)" height="58.2656" style="stroke:#A80036;stroke-width:1.0;" width="10" x="205" y="71.4297"/><rect fill="#FFFFFF" filter="url(#feagn8ribk318)" height="67.2656" style="stroke:#A80036;stroke-width:1.0;" width="10" x="305.5" y="158.8281"/><rect fill="#FFFFFF" filter="url(#feagn8ribk318)" height="29.1328" style="stroke:#A80036;stroke-width:1.0;" width="10" x="512.5" y="100.5625"/><rect fill="#FFFFFF" filter="url(#feagn8ribk318)" height="29.1328" style="stroke:#A80036;stroke-width:1.0;" width="10" x="512.5" y="187.9609"/><polygon fill="#A80036" points="193,67.4297,203,71.4297,193,75.4297,197,71.4297" style="stroke:#A80036;stroke-width:1.0;"/><line style="stroke:#A80036;stroke-width:1.0;" x1="82" x2="199" y1="71.4297" y2="71.4297"/><text fill="#000000" font-family="sans-serif" font-size="13" font-weight="bold" lengthAdjust="spacing" textLength="9" x="89" y="66.3638">1</text><text fill="#000000" font-family="sans-serif" font-size="13" lengthAdjust="spacing" textLength="91" x="102" y="66.3638">accept(visitor)</text><polygon fill="#A80036" points="500.5,96.5625,510.5,100.5625,500.5,104.5625,504.5,100.5625" style="stroke:#A80036;stroke-width:1.0;"/><line style="stroke:#A80036;stroke-width:1.0;" x1="215" x2="506.5" y1="100.5625" y2="100.5625"/><text fill="#000000" font-family="sans-serif" font-size="13" font-weight="bold" lengthAdjust="spacing" textLength="9" x="222" y="95.4966">2</text><text fill="#000000" font-family="sans-serif" font-size="13" lengthAdjust="spacing" textLength="165" x="235" y="95.4966">visitElementA(element_a)</text><polygon fill="#A80036" points="221,125.6953,211,129.6953,221,133.6953,217,129.6953" style="stroke:#A80036;stroke-width:1.0;"/><line style="stroke:#A80036;stroke-width:1.0;" x1="215" x2="516.5" y1="129.6953" y2="129.6953"/><text fill="#000000" font-family="sans-serif" font-size="13" font-weight="bold" lengthAdjust="spacing" textLength="9" x="227" y="124.6294">3</text><text fill="#000000" font-family="sans-serif" font-size="13" lengthAdjust="spacing" textLength="46" x="240" y="124.6294">funcA()</text><polygon fill="#A80036" points="293.5,154.8281,303.5,158.8281,293.5,162.8281,297.5,158.8281" style="stroke:#A80036;stroke-width:1.0;"/><line style="stroke:#A80036;stroke-width:1.0;" x1="82" x2="299.5" y1="158.8281" y2="158.8281"/><text fill="#000000" font-family="sans-serif" font-size="13" font-weight="bold" lengthAdjust="spacing" textLength="9" x="89" y="153.7622">4</text><text fill="#000000" font-family="sans-serif" font-size="13" lengthAdjust="spacing" textLength="91" x="102" y="153.7622">accept(visitor)</text><polygon fill="#A80036" points="500.5,183.9609,510.5,187.9609,500.5,191.9609,504.5,187.9609" style="stroke:#A80036;stroke-width:1.0;"/><line style="stroke:#A80036;stroke-width:1.0;" x1="315.5" x2="506.5" y1="187.9609" y2="187.9609"/><text fill="#000000" font-family="sans-serif" font-size="13" font-weight="bold" lengthAdjust="spacing" textLength="9" x="322.5" y="182.895">5</text><text fill="#000000" font-family="sans-serif" font-size="13" lengthAdjust="spacing" textLength="165" x="335.5" y="182.895">visitElementB(element_b)</text><polygon fill="#A80036" points="326.5,213.0938,316.5,217.0938,326.5,221.0938,322.5,217.0938" style="stroke:#A80036;stroke-width:1.0;"/><line style="stroke:#A80036;stroke-width:1.0;" x1="320.5" x2="516.5" y1="217.0938" y2="217.0938"/><text fill="#000000" font-family="sans-serif" font-size="13" font-weight="bold" lengthAdjust="spacing" textLength="9" x="332.5" y="212.0278">6</text><text fill="#000000" font-family="sans-serif" font-size="13" lengthAdjust="spacing" textLength="46" x="345.5" y="212.0278">funcB()</text></g></svg>