<?xml version="1.0" encoding="UTF-8" standalone="no"?><svg xmlns="http://www.w3.org/2000/svg" xmlns:xlink="http://www.w3.org/1999/xlink" contentScriptType="application/ecmascript" contentStyleType="text/css" height="487px" preserveAspectRatio="none" style="width:661px;height:487px;background:#FFFFFF;" version="1.1" viewBox="0 0 661 487" width="661px" zoomAndPan="magnify"><defs><filter height="300%" id="f1igpx1o8c67xj" width="300%" x="-1" y="-1"><feGaussianBlur result="blurOut" stdDeviation="2.0"/><feColorMatrix in="blurOut" result="blurOut2" type="matrix" values="0 0 0 0 0 0 0 0 0 0 0 0 0 0 0 0 0 0 .4 0"/><feOffset dx="4.0" dy="4.0" in="blurOut2" result="blurOut3"/><feBlend in="SourceGraphic" in2="blurOut3" mode="normal"/></filter></defs><g><rect fill="#FFFFFF" filter="url(#f1igpx1o8c67xj)" height="295.7969" style="stroke:#A80036;stroke-width:1.0;" width="10" x="24" y="98.2969"/><rect fill="#FFFFFF" filter="url(#f1igpx1o8c67xj)" height="265.6641" style="stroke:#A80036;stroke-width:1.0;" width="10" x="105" y="119.4297"/><rect fill="#FFFFFF" filter="url(#f1igpx1o8c67xj)" height="30" style="stroke:#A80036;stroke-width:1.0;" width="10" x="336" y="177.6953"/><rect fill="#FFFFFF" filter="url(#f1igpx1o8c67xj)" height="30" style="stroke:#A80036;stroke-width:1.0;" width="10" x="434" y="236.8281"/><rect fill="#FFFFFF" filter="url(#f1igpx1o8c67xj)" height="30" style="stroke:#A80036;stroke-width:1.0;" width="10" x="532" y="295.9609"/><rect fill="#FFFFFF" filter="url(#f1igpx1o8c67xj)" height="30" style="stroke:#A80036;stroke-width:1.0;" width="10" x="616" y="355.0938"/><line style="stroke:#A80036;stroke-width:1.0;stroke-dasharray:5.0,5.0;" x1="29" x2="29" y1="88.2969" y2="403.0938"/><line style="stroke:#A80036;stroke-width:1.0;stroke-dasharray:5.0,5.0;" x1="110" x2="110" y1="88.2969" y2="403.0938"/><line style="stroke:#A80036;stroke-width:1.0;stroke-dasharray:5.0,5.0;" x1="243" x2="243" y1="88.2969" y2="403.0938"/><line style="stroke:#A80036;stroke-width:1.0;stroke-dasharray:5.0,5.0;" x1="341" x2="341" y1="88.2969" y2="403.0938"/><line style="stroke:#A80036;stroke-width:1.0;stroke-dasharray:5.0,5.0;" x1="439" x2="439" y1="88.2969" y2="403.0938"/><line style="stroke:#A80036;stroke-width:1.0;stroke-dasharray:5.0,5.0;" x1="537" x2="537" y1="88.2969" y2="403.0938"/><line style="stroke:#A80036;stroke-width:1.0;stroke-dasharray:5.0,5.0;" x1="621" x2="621" y1="88.2969" y2="403.0938"/><text fill="#000000" font-family="sans-serif" font-size="14" lengthAdjust="spacing" textLength="42" x="5" y="84.9951">客户端</text><ellipse cx="29" cy="15" fill="#FEFECE" filter="url(#f1igpx1o8c67xj)" rx="8" ry="8" style="stroke:#A80036;stroke-width:2.0;"/><path d="M29,23 L29,50 M16,31 L42,31 M29,50 L16,65 M29,50 L42,65 " fill="none" filter="url(#f1igpx1o8c67xj)" style="stroke:#A80036;stroke-width:2.0;"/><text fill="#000000" font-family="sans-serif" font-size="14" lengthAdjust="spacing" textLength="42" x="5" y="415.0889">客户端</text><ellipse cx="29" cy="428.3906" fill="#FEFECE" filter="url(#f1igpx1o8c67xj)" rx="8" ry="8" style="stroke:#A80036;stroke-width:2.0;"/><path d="M29,436.3906 L29,463.3906 M16,444.3906 L42,444.3906 M29,463.3906 L16,478.3906 M29,463.3906 L42,478.3906 " fill="none" filter="url(#f1igpx1o8c67xj)" style="stroke:#A80036;stroke-width:2.0;"/><rect fill="#FFA500" filter="url(#f1igpx1o8c67xj)" height="30.2969" style="stroke:#A80036;stroke-width:1.5;" width="70" x="73" y="53"/><text fill="#000000" font-family="sans-serif" font-size="14" lengthAdjust="spacing" textLength="56" x="80" y="72.9951">中介对象</text><rect fill="#FFA500" filter="url(#f1igpx1o8c67xj)" height="30.2969" style="stroke:#A80036;stroke-width:1.5;" width="70" x="73" y="402.0938"/><text fill="#000000" font-family="sans-serif" font-size="14" lengthAdjust="spacing" textLength="56" x="80" y="422.0889">中介对象</text><rect fill="#FEFECE" filter="url(#f1igpx1o8c67xj)" height="30.2969" style="stroke:#A80036;stroke-width:1.5;" width="84" x="199" y="53"/><text fill="#000000" font-family="sans-serif" font-size="14" lengthAdjust="spacing" textLength="70" x="206" y="72.9951">字体列表框</text><rect fill="#FEFECE" filter="url(#f1igpx1o8c67xj)" height="30.2969" style="stroke:#A80036;stroke-width:1.5;" width="84" x="199" y="402.0938"/><text fill="#000000" font-family="sans-serif" font-size="14" lengthAdjust="spacing" textLength="70" x="206" y="422.0889">字体列表框</text><rect fill="#FEFECE" filter="url(#f1igpx1o8c67xj)" height="30.2969" style="stroke:#A80036;stroke-width:1.5;" width="84" x="297" y="53"/><text fill="#000000" font-family="sans-serif" font-size="14" lengthAdjust="spacing" textLength="70" x="304" y="72.9951">字体输入框</text><rect fill="#FEFECE" filter="url(#f1igpx1o8c67xj)" height="30.2969" style="stroke:#A80036;stroke-width:1.5;" width="84" x="297" y="402.0938"/><text fill="#000000" font-family="sans-serif" font-size="14" lengthAdjust="spacing" textLength="70" x="304" y="422.0889">字体输入框</text><rect fill="#FEFECE" filter="url(#f1igpx1o8c67xj)" height="30.2969" style="stroke:#A80036;stroke-width:1.5;" width="84" x="395" y="53"/><text fill="#000000" font-family="sans-serif" font-size="14" lengthAdjust="spacing" textLength="70" x="402" y="72.9951">大小调整框</text><rect fill="#FEFECE" filter="url(#f1igpx1o8c67xj)" height="30.2969" style="stroke:#A80036;stroke-width:1.5;" width="84" x="395" y="402.0938"/><text fill="#000000" font-family="sans-serif" font-size="14" lengthAdjust="spacing" textLength="70" x="402" y="422.0889">大小调整框</text><rect fill="#FEFECE" filter="url(#f1igpx1o8c67xj)" height="30.2969" style="stroke:#A80036;stroke-width:1.5;" width="84" x="493" y="53"/><text fill="#000000" font-family="sans-serif" font-size="14" lengthAdjust="spacing" textLength="70" x="500" y="72.9951">粗体单选框</text><rect fill="#FEFECE" filter="url(#f1igpx1o8c67xj)" height="30.2969" style="stroke:#A80036;stroke-width:1.5;" width="84" x="493" y="402.0938"/><text fill="#000000" font-family="sans-serif" font-size="14" lengthAdjust="spacing" textLength="70" x="500" y="422.0889">粗体单选框</text><rect fill="#FEFECE" filter="url(#f1igpx1o8c67xj)" height="30.2969" style="stroke:#A80036;stroke-width:1.5;" width="56" x="591" y="53"/><text fill="#000000" font-family="sans-serif" font-size="14" lengthAdjust="spacing" textLength="42" x="598" y="72.9951">编辑框</text><rect fill="#FEFECE" filter="url(#f1igpx1o8c67xj)" height="30.2969" style="stroke:#A80036;stroke-width:1.5;" width="56" x="591" y="402.0938"/><text fill="#000000" font-family="sans-serif" font-size="14" lengthAdjust="spacing" textLength="42" x="598" y="422.0889">编辑框</text><rect fill="#FFFFFF" filter="url(#f1igpx1o8c67xj)" height="295.7969" style="stroke:#A80036;stroke-width:1.0;" width="10" x="24" y="98.2969"/><rect fill="#FFFFFF" filter="url(#f1igpx1o8c67xj)" height="265.6641" style="stroke:#A80036;stroke-width:1.0;" width="10" x="105" y="119.4297"/><rect fill="#FFFFFF" filter="url(#f1igpx1o8c67xj)" height="30" style="stroke:#A80036;stroke-width:1.0;" width="10" x="336" y="177.6953"/><rect fill="#FFFFFF" filter="url(#f1igpx1o8c67xj)" height="30" style="stroke:#A80036;stroke-width:1.0;" width="10" x="434" y="236.8281"/><rect fill="#FFFFFF" filter="url(#f1igpx1o8c67xj)" height="30" style="stroke:#A80036;stroke-width:1.0;" width="10" x="532" y="295.9609"/><rect fill="#FFFFFF" filter="url(#f1igpx1o8c67xj)" height="30" style="stroke:#A80036;stroke-width:1.0;" width="10" x="616" y="355.0938"/><polygon fill="#A80036" points="93,115.4297,103,119.4297,93,123.4297,97,119.4297" style="stroke:#A80036;stroke-width:1.0;"/><line style="stroke:#A80036;stroke-width:1.0;" x1="34" x2="99" y1="119.4297" y2="119.4297"/><text fill="#000000" font-family="sans-serif" font-size="13" lengthAdjust="spacing" textLength="52" x="41" y="114.3638">切换字体</text><polygon fill="#A80036" points="126,144.5625,116,148.5625,126,152.5625,122,148.5625" style="stroke:#A80036;stroke-width:1.0;"/><line style="stroke:#A80036;stroke-width:1.0;" x1="120" x2="242" y1="148.5625" y2="148.5625"/><text fill="#000000" font-family="sans-serif" font-size="13" lengthAdjust="spacing" textLength="104" x="132" y="143.4966">所选字体发生变化</text><polygon fill="#A80036" points="324,173.6953,334,177.6953,324,181.6953,328,177.6953" style="stroke:#A80036;stroke-width:1.0;"/><line style="stroke:#A80036;stroke-width:1.0;" x1="115" x2="330" y1="177.6953" y2="177.6953"/><text fill="#000000" font-family="sans-serif" font-size="13" lengthAdjust="spacing" textLength="104" x="122" y="172.6294">设置选择字体名称</text><polygon fill="#A80036" points="422,232.8281,432,236.8281,422,240.8281,426,236.8281" style="stroke:#A80036;stroke-width:1.0;"/><line style="stroke:#A80036;stroke-width:1.0;" x1="115" x2="428" y1="236.8281" y2="236.8281"/><text fill="#000000" font-family="sans-serif" font-size="13" lengthAdjust="spacing" textLength="130" x="122" y="231.7622">设置选择字体默认大小</text><polygon fill="#A80036" points="520,291.9609,530,295.9609,520,299.9609,524,295.9609" style="stroke:#A80036;stroke-width:1.0;"/><line style="stroke:#A80036;stroke-width:1.0;" x1="115" x2="526" y1="295.9609" y2="295.9609"/><text fill="#000000" font-family="sans-serif" font-size="13" lengthAdjust="spacing" textLength="156" x="122" y="290.895">设置选择字体默认加粗样式</text><polygon fill="#A80036" points="604,351.0938,614,355.0938,604,359.0938,608,355.0938" style="stroke:#A80036;stroke-width:1.0;"/><line style="stroke:#A80036;stroke-width:1.0;" x1="115" x2="610" y1="355.0938" y2="355.0938"/><text fill="#000000" font-family="sans-serif" font-size="13" lengthAdjust="spacing" textLength="117" x="122" y="350.0278">设置编辑框内容字体</text></g></svg>